# xmcd
#
# Track frame offsets: 
#        150
#        18993
#        37934
#        55558
#        76309
#        93250
#        111484
#        129543
#        147495
#        167292
#        188823
#        206596
#
# Disc length: 2950 seconds
#
# Revision: 0
# Processed by: cddbd v1.5.2PL0 Copyright (c) Steve Scherf et al.
# Submitted via: ExactAudioCopy v0.99pb5
#
DISCID=960b840c
DTITLE=Teresa James and the Rhythm Tramps - You Know You Love IT
DYEAR=2010
DGENRE=Blues
TTITLE0=Hug Yourself
TTITLE1=Talk to the Hand
TTITLE2=It Ain't My Bad This Time
TTITLE3=A Good Day to Cry
TTITLE4=It Might Be Memphis
TTITLE5=She Don't Mess With His Buzz
TTITLE6=The Good Old Days
TTITLE7=Sunday Shoes
TTITLE8=Whine, Whine, Whine
TTITLE9=You Got Me Where It Hurts
TTITLE10=Looking For A Thang
TTITLE11=You Know You Love It
EXTD=
EXTT0=
EXTT1=
EXTT2=
EXTT3=
EXTT4=
EXTT5=
EXTT6=
EXTT7=
EXTT8=
EXTT9=
EXTT10=
EXTT11=
PLAYORDER=
